<svg preserveAspectRatio="none" width="100%" height="100%" overflow="visible" style="display: block;" viewBox="0 0 36 36" fill="none" xmlns="http://www.w3.org/2000/svg">
<g id="shield">
<g id="Union">
<path d="M17.5029 2.9087C17.8802 2.79084 18.2895 2.8103 18.6562 2.9673L29.1562 7.4673C29.7689 7.72987 30.1668 8.33301 30.167 8.99952V16.4995C30.167 24.1476 25.0202 29.3084 18.5508 31.5728C18.1943 31.6975 17.8057 31.6975 17.4492 31.5728C10.9798 29.3084 5.83301 24.1476 5.83301 16.4995V8.99952C5.8332 8.33301 6.23109 7.72987 6.84375 7.4673L17.3438 2.9673L17.5029 2.9087ZM9.16699 10.0982V16.4995C9.16699 22.1549 12.7664 26.21 18 28.2232C23.2337 26.21 26.833 22.1549 26.833 16.4995V10.0982L18 6.313L9.16699 10.0982ZM21.3213 13.8208C21.9721 13.1703 23.0279 13.1703 23.6787 13.8208C24.3295 14.4716 24.3293 15.5273 23.6787 16.1782L17.6787 22.1782C17.3662 22.4908 16.942 22.6665 16.5 22.6665C16.058 22.6665 15.6338 22.4908 15.3213 22.1782L12.3213 19.1782C11.6706 18.5273 11.6705 17.4716 12.3213 16.8208C12.9721 16.1703 14.0279 16.1703 14.6787 16.8208L16.5 18.6421L21.3213 13.8208Z" fill="url(#paint0_linear_0_4)"/>
<path d="M17.5029 2.9087L17.4581 2.76535L17.4511 2.76794L17.5029 2.9087ZM18.6562 2.9673L18.7153 2.82943L18.7153 2.82941L18.6562 2.9673ZM29.1562 7.4673L29.2153 7.32943V7.32943L29.1562 7.4673ZM30.167 8.99952H30.317V8.99948L30.167 8.99952ZM18.5508 31.5728L18.6003 31.7143H18.6003L18.5508 31.5728ZM17.4492 31.5728L17.3997 31.7143H17.3997L17.4492 31.5728ZM5.83301 8.99952L5.68301 8.99948V8.99952H5.83301ZM6.84375 7.4673L6.78466 7.32943H6.78466L6.84375 7.4673ZM17.3438 2.9673L17.2919 2.82634L17.2847 2.82943L17.3438 2.9673ZM9.16699 10.0982L9.10791 9.96028C9.05275 9.98392 9.01699 10.0382 9.01699 10.0982H9.16699ZM18 28.2232L17.9461 28.3632C17.9808 28.3765 18.0192 28.3765 18.0539 28.3632L18 28.2232ZM26.833 10.0982H26.983C26.983 10.0382 26.9472 9.98392 26.8921 9.96028L26.833 10.0982ZM18 6.313L18.0591 6.17513C18.0214 6.15896 17.9786 6.15896 17.9409 6.17513L18 6.313ZM21.3213 13.8208L21.2152 13.7147L21.2152 13.7147L21.3213 13.8208ZM23.6787 13.8208L23.7848 13.7147L23.7848 13.7147L23.6787 13.8208ZM23.6787 16.1782L23.7848 16.2843L23.7848 16.2843L23.6787 16.1782ZM17.6787 22.1782L17.5726 22.0722V22.0722L17.6787 22.1782ZM16.5 22.6665V22.8165V22.8165V22.6665ZM15.3213 22.1782L15.4274 22.0722V22.0722L15.3213 22.1782ZM12.3213 19.1782L12.2152 19.2843L12.2152 19.2843L12.3213 19.1782ZM12.3213 16.8208L12.2152 16.7147L12.2152 16.7147L12.3213 16.8208ZM14.6787 16.8208L14.7848 16.7147L14.7848 16.7147L14.6787 16.8208ZM16.5 18.6421L16.3939 18.7482C16.4525 18.8067 16.5475 18.8067 16.6061 18.7482L16.5 18.6421ZM17.5029 2.9087L17.5477 3.05188C17.891 2.94462 18.2635 2.96234 18.5972 3.10519L18.6562 2.9673L18.7153 2.82941C18.3155 2.65826 17.8694 2.63707 17.4582 2.76553L17.5029 2.9087ZM18.6562 2.9673L18.5972 3.10517L29.0972 7.60517L29.1562 7.4673L29.2153 7.32943L18.7153 2.82943L18.6562 2.9673ZM29.1562 7.4673L29.0972 7.60517C29.6547 7.84411 30.0168 8.39305 30.017 8.99957L30.167 8.99952L30.317 8.99948C30.3168 8.27296 29.8831 7.61562 29.2153 7.32943L29.1562 7.4673ZM30.167 8.99952H30.017V16.4995H30.167H30.317V8.99952H30.167ZM30.167 16.4995H30.017C30.017 24.0665 24.9287 29.1815 18.5012 31.4312L18.5508 31.5728L18.6003 31.7143C25.1117 29.4353 30.317 24.2287 30.317 16.4995H30.167ZM18.5508 31.5728L18.5012 31.4312C18.1769 31.5447 17.8231 31.5447 17.4988 31.4312L17.4492 31.5728L17.3997 31.7143C17.7882 31.8503 18.2118 31.8503 18.6003 31.7143L18.5508 31.5728ZM17.4492 31.5728L17.4988 31.4312C11.0713 29.1815 5.98301 24.0665 5.98301 16.4995H5.83301H5.68301C5.68301 24.2287 10.8883 29.4353 17.3997 31.7143L17.4492 31.5728ZM5.83301 16.4995H5.98301V8.99952H5.83301H5.68301V16.4995H5.83301ZM5.83301 8.99952L5.98301 8.99957C5.98318 8.39305 6.34531 7.84411 6.90284 7.60517L6.84375 7.4673L6.78466 7.32943C6.11688 7.61562 5.68322 8.27296 5.68301 8.99948L5.83301 8.99952ZM6.84375 7.4673L6.90284 7.60517L17.4028 3.10517L17.3438 2.9673L17.2847 2.82943L6.78466 7.32943L6.84375 7.4673ZM17.3438 2.9673L17.3956 3.10806L17.5547 3.04947L17.5029 2.9087L17.4511 2.76794L17.2919 2.82653L17.3438 2.9673ZM9.16699 10.0982H9.01699V16.4995H9.16699H9.31699V10.0982H9.16699ZM9.16699 16.4995H9.01699C9.01699 22.2321 12.6701 26.3337 17.9461 28.3632L18 28.2232L18.0539 28.0832C12.8626 26.0863 9.31699 22.0777 9.31699 16.4995H9.16699ZM18 28.2232L18.0539 28.3632C23.3299 26.3337 26.983 22.2321 26.983 16.4995H26.833H26.683C26.683 22.0777 23.1374 26.0863 17.9461 28.0832L18 28.2232ZM26.833 16.4995H26.983V10.0982H26.833H26.683V16.4995H26.833ZM26.833 10.0982L26.8921 9.96028L18.0591 6.17513L18 6.313L17.9409 6.45088L26.7739 10.236L26.833 10.0982ZM18 6.313L17.9409 6.17513L9.10791 9.96028L9.16699 10.0982L9.22607 10.236L18.0591 6.45088L18 6.313ZM21.3213 13.8208L21.4273 13.9269C22.0196 13.3349 22.9804 13.3349 23.5727 13.9269L23.6787 13.8208L23.7848 13.7147C23.0754 13.0056 21.9246 13.0056 21.2152 13.7147L21.3213 13.8208ZM23.6787 13.8208L23.5726 13.9269C24.1648 14.5191 24.1647 15.4799 23.5726 16.0722L23.6787 16.1782L23.7848 16.2843C24.494 15.5748 24.4942 14.4241 23.7848 13.7147L23.6787 13.8208ZM23.6787 16.1782L23.5726 16.0722L17.5726 22.0722L17.6787 22.1782L17.7848 22.2843L23.7848 16.2843L23.6787 16.1782ZM17.6787 22.1782L17.5726 22.0722C17.2882 22.3566 16.9022 22.5165 16.5 22.5165V22.6665V22.8165C16.9818 22.8165 17.4441 22.625 17.7848 22.2843L17.6787 22.1782ZM16.5 22.6665V22.5165C16.0978 22.5165 15.7118 22.3566 15.4274 22.0722L15.3213 22.1782L15.2152 22.2843C15.5559 22.625 16.0182 22.8165 16.5 22.8165V22.6665ZM15.3213 22.1782L15.4274 22.0722L12.4274 19.0722L12.3213 19.1782L12.2152 19.2843L15.2152 22.2843L15.3213 22.1782ZM12.3213 19.1782L12.4274 19.0722C11.8353 18.4799 11.8352 17.5191 12.4274 16.9269L12.3213 16.8208L12.2152 16.7147C11.5058 17.4241 11.506 18.5748 12.2152 19.2843L12.3213 19.1782ZM12.3213 16.8208L12.4273 16.9269C13.0196 16.3349 13.9804 16.3349 14.5727 16.9269L14.6787 16.8208L14.7848 16.7147C14.0754 16.0056 12.9246 16.0056 12.2152 16.7147L12.3213 16.8208ZM14.6787 16.8208L14.5726 16.9269L16.3939 18.7482L16.5 18.6421L16.6061 18.536L14.7848 16.7147L14.6787 16.8208ZM16.5 18.6421L16.6061 18.7482L21.4274 13.9269L21.3213 13.8208L21.2152 13.7147L16.3939 18.536L16.5 18.6421Z" fill="url(#paint1_linear_0_4)"/>
</g>
</g>
<defs>
<linearGradient id="paint0_linear_0_4" x1="18" y1="2.83351" x2="18" y2="31.667" gradientUnits="userSpaceOnUse">
<stop stop-color="#958975" stop-opacity="0.9"/>
<stop offset="1" stop-color="#958975" stop-opacity="0.3"/>
</linearGradient>
<linearGradient id="paint1_linear_0_4" x1="18" y1="2.83351" x2="18" y2="31.667" gradientUnits="userSpaceOnUse">
<stop stop-color="#958975"/>
<stop offset="1" stop-color="#958975" stop-opacity="0.368627"/>
</linearGradient>
</defs>
</svg>
